<svg xmlns="http://www.w3.org/2000/svg" viewBox="0 0 57.39 57.11"><defs><style>.cls-1{font-size:7.97px;letter-spacing:0em;}.cls-1,.cls-2,.cls-3{fill:#727170;}.cls-1,.cls-3{font-family:OpenSans-Bold, Open Sans;font-weight:700;}.cls-3{font-size:15.95px;letter-spacing:0em;}</style></defs><title>compromiso</title><g id="Capa_2" data-name="Capa 2"><g id="Capa_1-2" data-name="Capa 1"><text class="cls-1" transform="translate(1.33 31.38)">COMPROMISO</text><path class="cls-2" d="M56,23.39c-15.29-5-39.68-4.88-56,0l17.51-7.33a27.43,27.43,0,0,1,21.07,0Z"/><path class="cls-2" d="M0,47.68c15.29,5,39.68,4.88,56,0L38.52,55a27.43,27.43,0,0,1-21.07,0Z"/><text class="cls-3" transform="translate(2.19 45.36)">TRICAL</text><g id="cmrnwP"><path class="cls-2" d="M35.74,0c.3,0,.61,0,.91.09a9.73,9.73,0,0,1,4.41,1.8,3.06,3.06,0,0,1,.52.5,1.08,1.08,0,0,1,.19.31.43.43,0,0,1-.32.65,8.66,8.66,0,0,1-.87.12c-.61.06-1.21.13-1.81.25a4.37,4.37,0,0,0-2.06,1.16c-.41.37-.8.77-1.2,1.14a7.12,7.12,0,0,1-1.33,1.06,3.9,3.9,0,0,1-1.58.53,2.41,2.41,0,0,1-2.27-1c-.11-.14-.11-.14-.22,0a6.08,6.08,0,0,0-.69,1.74,17.59,17.59,0,0,0-.51,5.51c0,.24,0,.48.07.71a2.25,2.25,0,0,0,.21.78c.21.42,0,.72-.44.75a2.14,2.14,0,0,1-.62,0,.45.45,0,0,1-.32-.69,2.61,2.61,0,0,0,.28-1.23c0-.76-.06-1.53-.07-2.3a.33.33,0,0,0,0-.13,12.37,12.37,0,0,0-1.78-2.7c-.09-.1-.12-.1-.18,0a2.53,2.53,0,0,1-2.08,1.53,3.6,3.6,0,0,1-2.15-.42,17.23,17.23,0,0,1-2-1.29,7.7,7.7,0,0,0-1.39-.8,4.69,4.69,0,0,0-2.13-.25c-.53,0-1,.11-1.58.1a.51.51,0,0,1-.51-.27V7.43A3.16,3.16,0,0,1,15,6.22a9.2,9.2,0,0,1,3.61-2.13A9.34,9.34,0,0,1,22,3.7a5.8,5.8,0,0,1,2.54.68A3.19,3.19,0,0,1,26.36,6.8a3.8,3.8,0,0,1-.06,1.5.16.16,0,0,0,0,.19,12.72,12.72,0,0,1,1.75,2s0,.07.08.06c0-.17,0-.33.07-.5a9.16,9.16,0,0,1,1.56-4,.21.21,0,0,0,0-.26,3.7,3.7,0,0,1-.39-2.33A3.54,3.54,0,0,1,31,1.25,6.82,6.82,0,0,1,34.39.09L35.49,0ZM30.35,6.35a8.35,8.35,0,0,1,6.71-3.76.21.21,0,0,0-.12,0A7.08,7.08,0,0,0,34,2.9a8.58,8.58,0,0,0-3.66,2.57c-.35.4-.35.4-.05.85Zm-11.67.23.25,0a10.58,10.58,0,0,1,2.25,0,8.12,8.12,0,0,1,4.41,2,1.1,1.1,0,0,0,.31.26c0-.13.08-.26.13-.39A.18.18,0,0,0,26,8.25a7.85,7.85,0,0,0-6.48-1.88A2.93,2.93,0,0,0,18.68,6.58Z"/></g></g></g></svg>