<svg xmlns="http://www.w3.org/2000/svg" viewBox="0 0 56.96 57.11"><defs><style>.cls-1{fill:#523016;}.cls-2{fill:#005222;}.cls-3{fill:#519435;}</style></defs><title>Recurso 1</title><g id="Capa_2" data-name="Capa 2"><g id="Capa_1-2" data-name="Capa 1"><path class="cls-1" d="M4.47,26.61a1.23,1.23,0,0,0-1.06.51A2.38,2.38,0,0,0,3,28.55c0,1.27.47,1.9,1.43,1.9a4.56,4.56,0,0,0,1.45-.3v1a4.14,4.14,0,0,1-1.57.29,2.37,2.37,0,0,1-1.9-.76,3.17,3.17,0,0,1-.66-2.16A3.44,3.44,0,0,1,2.12,27a2.27,2.27,0,0,1,.93-1,2.7,2.7,0,0,1,1.42-.35,3.78,3.78,0,0,1,1.66.4l-.39,1c-.21-.1-.43-.19-.64-.27A2.09,2.09,0,0,0,4.47,26.61Z"/><path class="cls-1" d="M12.25,28.53a3.08,3.08,0,0,1-.7,2.17,2.6,2.6,0,0,1-2,.76,2.59,2.59,0,0,1-2-.76,3.09,3.09,0,0,1-.71-2.18,3,3,0,0,1,.71-2.17,2.62,2.62,0,0,1,2-.75,2.6,2.6,0,0,1,2,.75A3.13,3.13,0,0,1,12.25,28.53Zm-4.15,0A2.37,2.37,0,0,0,8.46,30a1.26,1.26,0,0,0,1.08.48c1,0,1.45-.63,1.45-1.91s-.48-1.93-1.44-1.93a1.25,1.25,0,0,0-1.08.49A2.32,2.32,0,0,0,8.1,28.53Z"/><path class="cls-1" d="M15.8,31.38l-1.37-4.47h0c0,.91.07,1.52.07,1.82v2.65H13.39V25.69H15L16.38,30h0l1.43-4.35h1.64v5.69H18.35V28.69c0-.13,0-.28,0-.44s0-.61.05-1.33h0l-1.47,4.46Z"/><path class="cls-1" d="M24.8,27.46a1.75,1.75,0,0,1-.57,1.41,2.48,2.48,0,0,1-1.63.48h-.52v2H20.87V25.69h1.82a2.43,2.43,0,0,1,1.57.44A1.63,1.63,0,0,1,24.8,27.46Zm-2.72.91h.4a1.37,1.37,0,0,0,.83-.22.79.79,0,0,0,.28-.64.77.77,0,0,0-.24-.63,1,1,0,0,0-.72-.2h-.55Z"/><path class="cls-1" d="M27.05,29.2v2.18H25.84V25.69H27.5a2.83,2.83,0,0,1,1.71.42,1.68,1.68,0,0,1,.28,2.18,1.8,1.8,0,0,1-.78.61c.86,1.28,1.42,2.11,1.68,2.48H29.05L27.69,29.2Zm0-1h.38a1.46,1.46,0,0,0,.85-.19.67.67,0,0,0,.27-.6.6.6,0,0,0-.28-.57,1.61,1.61,0,0,0-.86-.17h-.36Z"/><path class="cls-1" d="M36.23,28.53a3.08,3.08,0,0,1-.7,2.17,3,3,0,0,1-4,0,3.09,3.09,0,0,1-.7-2.18,3,3,0,0,1,.7-2.17,2.63,2.63,0,0,1,2-.75,2.59,2.59,0,0,1,2,.75A3.09,3.09,0,0,1,36.23,28.53Zm-4.16,0A2.37,2.37,0,0,0,32.44,30a1.26,1.26,0,0,0,1.08.48c1,0,1.44-.63,1.44-1.91s-.47-1.93-1.43-1.93a1.26,1.26,0,0,0-1.09.49A2.38,2.38,0,0,0,32.07,28.53Z"/><path class="cls-1" d="M39.78,31.38l-1.37-4.47h0c.05.91.08,1.52.08,1.82v2.65H37.37V25.69H39L40.36,30h0l1.43-4.35h1.64v5.69H42.33V28.25c0-.17,0-.61.06-1.33h0l-1.47,4.46Z"/><path class="cls-1" d="M44.85,31.38V25.69h1.2v5.69Z"/><path class="cls-1" d="M50.81,29.8A1.46,1.46,0,0,1,50.25,31a2.37,2.37,0,0,1-1.54.45,3.57,3.57,0,0,1-1.61-.35V30a6.57,6.57,0,0,0,1,.37,2.89,2.89,0,0,0,.73.1,1,1,0,0,0,.61-.15.52.52,0,0,0,.21-.45.53.53,0,0,0-.09-.3.87.87,0,0,0-.28-.25,7.27,7.27,0,0,0-.73-.39,3.56,3.56,0,0,1-.79-.47,1.72,1.72,0,0,1-.41-.52,1.45,1.45,0,0,1-.16-.7A1.47,1.47,0,0,1,47.67,26a2.13,2.13,0,0,1,1.42-.43,3.36,3.36,0,0,1,.85.1,5.71,5.71,0,0,1,.84.3l-.39.93a6.88,6.88,0,0,0-.75-.26,2.44,2.44,0,0,0-.59-.07.78.78,0,0,0-.53.16.54.54,0,0,0-.18.42.48.48,0,0,0,.08.27.63.63,0,0,0,.23.23,5.71,5.71,0,0,0,.77.4,3.08,3.08,0,0,1,1.09.77A1.47,1.47,0,0,1,50.81,29.8Z"/><path class="cls-1" d="M57,28.53a3.08,3.08,0,0,1-.7,2.17,3,3,0,0,1-4,0,3.09,3.09,0,0,1-.71-2.18,3,3,0,0,1,.71-2.17,2.62,2.62,0,0,1,2-.75,2.6,2.6,0,0,1,2,.75A3.13,3.13,0,0,1,57,28.53Zm-4.15,0A2.37,2.37,0,0,0,53.17,30a1.26,1.26,0,0,0,1.08.48c1,0,1.45-.63,1.45-1.91s-.48-1.93-1.44-1.93a1.25,1.25,0,0,0-1.08.49A2.32,2.32,0,0,0,52.81,28.53Z"/><path class="cls-1" d="M0,47.68c15.29,5,39.68,4.88,56,0L38.52,55a27.43,27.43,0,0,1-21.07,0Z"/><path class="cls-2" d="M7.18,47.17H3.56V36.7H.28v-3H10.45v3H7.18Z"/><path class="cls-2" d="M18.35,36.58a5.1,5.1,0,0,1,.89.07l.2,0-.32,3.39A4.91,4.91,0,0,0,17.9,40a2.34,2.34,0,0,0-1.71.53,2.14,2.14,0,0,0-.53,1.55v5.12H12.07V36.76h2.67l.56,1.66h.18a3.54,3.54,0,0,1,1.25-1.33A3,3,0,0,1,18.35,36.58Z"/><path class="cls-2" d="M20.73,34.17a1.5,1.5,0,0,1,.45-1.2,2.13,2.13,0,0,1,1.45-.4,2.18,2.18,0,0,1,1.46.41,1.51,1.51,0,0,1,.46,1.19c0,1-.64,1.58-1.92,1.58S20.73,35.22,20.73,34.17Zm3.68,13H20.82V36.76h3.59Z"/><path class="cls-2" d="M33,36.52a2.32,2.32,0,0,0-2,1.06,5.16,5.16,0,0,0-.72,2.93q0,3.87,2.95,3.87a6.21,6.21,0,0,0,1.72-.24q.84-.26,1.68-.6v3.07a9.4,9.4,0,0,1-3.8.74,6,6,0,0,1-4.66-1.76,7.3,7.3,0,0,1-1.62-5.1,8.22,8.22,0,0,1,.78-3.67,5.63,5.63,0,0,1,2.26-2.42,6.81,6.81,0,0,1,3.47-.85,9.55,9.55,0,0,1,4.16.94L36.1,37.35a13.16,13.16,0,0,0-1.49-.59A5.16,5.16,0,0,0,33,36.52Z"/><path class="cls-2" d="M45.72,47.17,45,45.79H45A4.07,4.07,0,0,1,43.48,47a4.89,4.89,0,0,1-1.95.33,3,3,0,0,1-2.31-.88A3.46,3.46,0,0,1,38.38,44a2.82,2.82,0,0,1,1.15-2.48,6.38,6.38,0,0,1,3.36-.91l1.73-.06V40.4a1.13,1.13,0,0,0-1.27-1.29,7.64,7.64,0,0,0-2.89.77l-1-2.37A10.05,10.05,0,0,1,44,36.58a4.46,4.46,0,0,1,3.1,1,3.51,3.51,0,0,1,1.1,2.77v6.83Zm-2.66-2.36a1.62,1.62,0,0,0,1.12-.41,1.38,1.38,0,0,0,.46-1.07v-.81l-.83,0c-1.18,0-1.77.47-1.77,1.3C42,44.5,42.38,44.81,43.06,44.81Z"/><path class="cls-2" d="M54.15,47.17H50.56V32.87h3.59Z"/><g id="cmrnwP"><path class="cls-3" d="M35.74,0c.3,0,.61,0,.91.09a9.73,9.73,0,0,1,4.41,1.8,3.06,3.06,0,0,1,.52.5,1.08,1.08,0,0,1,.19.31.43.43,0,0,1-.32.65,8.66,8.66,0,0,1-.87.12c-.61.06-1.21.13-1.81.25a4.37,4.37,0,0,0-2.06,1.16c-.41.37-.8.77-1.2,1.14a7.12,7.12,0,0,1-1.33,1.06,3.9,3.9,0,0,1-1.58.53,2.41,2.41,0,0,1-2.27-1c-.11-.14-.11-.14-.22,0a6.08,6.08,0,0,0-.69,1.74,17.59,17.59,0,0,0-.51,5.51c0,.24,0,.48.07.71a2.25,2.25,0,0,0,.21.78c.21.42,0,.72-.44.75a2.14,2.14,0,0,1-.62,0,.45.45,0,0,1-.32-.69,2.61,2.61,0,0,0,.28-1.23c0-.76-.06-1.53-.07-2.3a.33.33,0,0,0,0-.13,12.37,12.37,0,0,0-1.78-2.7c-.09-.1-.12-.1-.18,0a2.53,2.53,0,0,1-2.08,1.53,3.6,3.6,0,0,1-2.15-.42,17.23,17.23,0,0,1-2-1.29,7.7,7.7,0,0,0-1.39-.8,4.69,4.69,0,0,0-2.13-.25c-.53,0-1,.11-1.58.1a.51.51,0,0,1-.51-.27V7.43A3.16,3.16,0,0,1,15,6.22a9.2,9.2,0,0,1,3.61-2.13A9.34,9.34,0,0,1,22,3.7a5.8,5.8,0,0,1,2.54.68A3.19,3.19,0,0,1,26.36,6.8a3.8,3.8,0,0,1-.06,1.5.16.16,0,0,0,0,.19,12.72,12.72,0,0,1,1.75,2s0,.07.08.06c0-.17,0-.33.07-.5a9.16,9.16,0,0,1,1.56-4,.21.21,0,0,0,0-.26,3.7,3.7,0,0,1-.39-2.33A3.54,3.54,0,0,1,31,1.25,6.82,6.82,0,0,1,34.39.09L35.49,0ZM30.35,6.35a8.35,8.35,0,0,1,6.71-3.76.21.21,0,0,0-.12,0A7.08,7.08,0,0,0,34,2.9a8.58,8.58,0,0,0-3.66,2.57c-.35.4-.35.4-.05.85Zm-11.67.23.25,0a10.58,10.58,0,0,1,2.25,0,8.12,8.12,0,0,1,4.41,2,1.1,1.1,0,0,0,.31.26c0-.13.08-.26.13-.39A.18.18,0,0,0,26,8.25a7.85,7.85,0,0,0-6.48-1.88A2.93,2.93,0,0,0,18.68,6.58Z"/></g><path class="cls-1" d="M56,23.39c-15.29-5-39.68-4.88-56,0l17.51-7.33a27.43,27.43,0,0,1,21.07,0Z"/></g></g></svg>