<svg xmlns="http://www.w3.org/2000/svg" viewBox="0 0 57.58 57.11"><defs><style>.cls-1{font-size:7.97px;font-family:OpenSans-Bold, Open Sans;letter-spacing:0em;}.cls-1,.cls-2{fill:#523016;}.cls-1,.cls-3{font-weight:700;}.cls-3{font-size:18.81px;fill:#005222;font-family:OpenSans-ExtraBold, Open Sans;letter-spacing:0em;}.cls-4{fill:#519435;}</style></defs><title>Recurso 1</title><g id="Capa_2" data-name="Capa 2"><g id="Capa_1-2" data-name="Capa 1"><text class="cls-1" transform="translate(1.52 31.38)">COMPROMISO</text><path class="cls-2" d="M.19,47.68c15.29,5,39.68,4.88,56,0L38.71,55a27.43,27.43,0,0,1-21.07,0Z"/><text class="cls-3" transform="translate(0 47.17)">TriCal</text><g id="cmrnwP"><path class="cls-4" d="M35.93,0c.31,0,.61,0,.92.09a9.74,9.74,0,0,1,4.4,1.8,3.06,3.06,0,0,1,.52.5A1.08,1.08,0,0,1,42,2.7a.43.43,0,0,1-.32.65,8.66,8.66,0,0,1-.87.12c-.6.06-1.21.13-1.81.25A4.37,4.37,0,0,0,36.9,4.88c-.41.37-.79.77-1.2,1.14a7.12,7.12,0,0,1-1.33,1.06,3.85,3.85,0,0,1-1.57.53,2.39,2.39,0,0,1-2.27-1c-.12-.14-.12-.14-.23,0a6.08,6.08,0,0,0-.69,1.74,17.59,17.59,0,0,0-.51,5.51c0,.24,0,.48.07.71a2.25,2.25,0,0,0,.21.78c.21.42,0,.72-.43.75a2.21,2.21,0,0,1-.63,0,.45.45,0,0,1-.32-.69,2.75,2.75,0,0,0,.29-1.23c0-.76-.07-1.53-.08-2.3a.31.31,0,0,0,0-.13,12.75,12.75,0,0,0-1.78-2.7c-.1-.1-.13-.1-.19,0a2.53,2.53,0,0,1-2.07,1.53A3.62,3.62,0,0,1,22,10.22a18.14,18.14,0,0,1-2-1.29,7.7,7.7,0,0,0-1.39-.8,4.69,4.69,0,0,0-2.13-.25C16,7.9,15.43,8,14.9,8a.51.51,0,0,1-.51-.27V7.43a3.18,3.18,0,0,1,.84-1.21,9.09,9.09,0,0,1,3.6-2.13A9.34,9.34,0,0,1,22.2,3.7a5.8,5.8,0,0,1,2.54.68A3.19,3.19,0,0,1,26.55,6.8a3.8,3.8,0,0,1-.06,1.5.16.16,0,0,0,0,.19,12.24,12.24,0,0,1,1.75,2s0,.07.08.06c0-.17.05-.33.08-.5a9,9,0,0,1,1.55-4,.21.21,0,0,0,0-.26,3.63,3.63,0,0,1-.38-2.33,3.49,3.49,0,0,1,1.55-2.3A6.82,6.82,0,0,1,34.59.09c.36,0,.73-.06,1.1-.09ZM30.54,6.35a8.36,8.36,0,0,1,6.71-3.76.21.21,0,0,0-.12,0,7.08,7.08,0,0,0-2.92.35,8.58,8.58,0,0,0-3.66,2.57c-.35.4-.35.4-.05.85Zm-11.66.23.24,0a10.58,10.58,0,0,1,2.25,0,8.08,8.08,0,0,1,4.41,2,1.1,1.1,0,0,0,.31.26c0-.13.08-.26.13-.39s0-.13-.06-.19a7.85,7.85,0,0,0-6.48-1.88A2.78,2.78,0,0,0,18.88,6.58Z"/></g><path class="cls-2" d="M56.22,23.39c-15.29-5-39.68-4.88-56,0L17.7,16.06a27.43,27.43,0,0,1,21.07,0Z"/></g></g></svg>